<?xml version="1.0" standalone="no"?>
<!DOCTYPE svg PUBLIC "-//W3C//DTD SVG 20010904//EN"
 "http://www.w3.org/TR/2001/REC-SVG-20010904/DTD/svg10.dtd">
<svg version="1.0" xmlns="http://www.w3.org/2000/svg"
 width="572.000000pt" height="572.000000pt" viewBox="0 0 572.000000 572.000000"
 preserveAspectRatio="xMidYMid meet">
<metadata>
Created by potrace 1.11, written by Peter Selinger 2001-2013
</metadata>
<g transform="translate(0.000000,572.000000) scale(0.100000,-0.100000)"
fill="#000000" stroke="none">
<path d="M2645 5564 c-16 -2 -77 -9 -135 -15 -549 -58 -1094 -304 -1525 -689
-265 -237 -471 -510 -636 -845 -134 -273 -213 -525 -260 -835 -33 -212 -33
-583 0 -790 98 -627 359 -1147 791 -1580 426 -428 968 -696 1585 -787 168 -24
562 -24 730 0 1016 149 1836 796 2215 1747 179 450 234 997 149 1487 -209
1206 -1154 2119 -2368 2289 -101 14 -483 27 -546 18z m579 -84 c598 -90 1133
-367 1555 -806 328 -342 562 -761 676 -1216 61 -245 79 -390 79 -668 0 -261
-11 -374 -59 -595 -111 -506 -357 -957 -725 -1326 -214 -216 -383 -344 -635
-482 -274 -150 -562 -246 -895 -298 -209 -33 -571 -33 -780 0 -614 96 -1135
366 -1559 807 -395 411 -643 919 -733 1499 -29 188 -31 568 -4 750 88 603 339
1119 751 1544 449 464 1043 747 1702 811 143 14 470 3 627 -20z"/>
<path d="M2481 5269 c-73 -10 -135 -20 -137 -22 -3 -2 2 -62 10 -133 8 -71 21
-195 27 -276 11 -131 15 -148 30 -148 18 0 215 25 277 36 23 3 32 10 32 24 0
24 3 24 -147 3 -68 -9 -125 -14 -128 -11 -6 6 -27 209 -22 214 3 4 218 34 239
34 4 0 8 10 8 23 l0 23 -87 -12 c-49 -7 -106 -13 -129 -13 l-41 -1 -7 77 c-3
42 -6 88 -6 103 l0 27 113 12 c151 16 157 18 157 41 0 24 -8 24 -189 -1z"/>
<path d="M3218 5250 c-45 -11 -111 -51 -130 -79 -12 -17 -19 -19 -54 -11 -36
9 -311 12 -289 4 10 -4 9 -166 -2 -194 -3 -8 -6 -229 -7 -490 -1 -469 -1 -475
-21 -478 -11 -2 -25 -12 -30 -24 -6 -12 -30 -33 -55 -46 -25 -14 -46 -29 -48
-33 -2 -5 -9 -9 -16 -9 -13 0 -76 -61 -76 -74 0 -15 -31 -38 -54 -40 l-23 -1
1 -1610 1 -1610 28 -3 c15 -2 27 -7 27 -12 0 -5 12 -10 28 -12 48 -5 41 -44
-26 -149 l-60 -92 -22 99 c-12 54 -30 133 -39 174 -12 54 -21 76 -34 78 -9 2
-17 -1 -17 -6 0 -34 90 -376 101 -383 19 -11 22 -8 86 96 l58 95 24 -104 c35
-151 39 -150 152 40 l91 154 132 -1 c86 -1 120 -4 98 -9 -18 -4 -42 -16 -52
-25 -19 -17 -20 -17 -20 -1 0 11 -6 16 -16 14 -8 -2 -15 -6 -15 -10 1 -5 1
-69 1 -143 0 -130 1 -135 21 -135 19 0 20 4 14 78 -12 137 20 197 108 197 64
0 77 -26 77 -151 0 -98 1 -104 20 -104 20 0 20 4 15 93 -11 164 -14 172 -78
187 -23 6 -6 8 61 9 50 1 92 -2 92 -6 0 -5 -7 -17 -15 -27 -34 -45 -8 -179 42
-211 46 -31 183 -14 183 22 0 11 -6 13 -22 8 -13 -4 -44 -10 -71 -12 -59 -6
-91 12 -107 63 -16 46 -11 49 96 65 104 15 110 18 96 57 -7 19 -7 44 -1 69 5
21 8 723 8 1608 l0 1570 -29 35 c-17 19 -30 42 -30 51 0 10 -6 24 -12 31 -7 8
-18 22 -24 33 -6 10 -19 23 -30 29 -10 6 -28 21 -40 32 -26 27 -109 74 -130
74 -9 0 -18 9 -21 20 -3 13 -14 20 -29 20 l-24 0 0 335 c0 184 2 335 5 335 3
0 24 -9 45 -20 52 -27 185 -45 223 -31 15 6 27 17 27 26 0 12 -14 15 -74 15
-82 0 -157 20 -197 53 -26 22 -27 25 -32 180 l-5 158 29 34 c59 67 179 86 294
46 33 -12 61 -21 62 -21 2 0 3 11 3 24 0 20 -9 27 -47 41 -58 20 -175 28 -225
15z m-174 -827 c2 -10 7 -87 11 -170 6 -136 5 -154 -9 -159 -9 -4 -18 -5 -20
-3 -2 2 -6 82 -10 177 -6 149 -5 172 8 172 8 0 17 -8 20 -17z m165 -647 c34
-36 41 -87 29 -211 -5 -60 -12 -112 -14 -114 -9 -10 -16 11 -26 76 -6 37 -21
107 -34 155 -13 47 -21 94 -18 102 9 23 37 20 63 -8z m-514 -1287 c134 -12
482 -6 580 11 28 4 52 6 54 4 2 -2 6 -267 9 -587 l5 -584 -99 -14 c-113 -16
-600 -18 -674 -3 l-45 10 -3 579 c-1 319 0 586 3 593 3 7 13 11 22 8 10 -3 77
-10 148 -17z m75 -1965 c0 -18 -143 -245 -150 -238 -4 5 -17 51 -30 102 -21
86 -21 94 -6 117 15 23 22 25 101 25 47 0 85 -3 85 -6z m652 -11 c39 -35 26
-42 -119 -67 -41 -7 -43 10 -7 53 21 25 33 31 67 31 24 0 48 -7 59 -17z"/>
<path d="M2975 1955 c-5 -18 -14 -20 -95 -18 -49 1 -94 4 -99 8 -6 3 -20 -2
-31 -12 -19 -19 -19 -19 12 -38 18 -10 27 -20 21 -22 -6 -2 -30 8 -52 23 -34
22 -44 24 -56 14 -21 -18 -19 -40 5 -40 13 0 18 -5 14 -15 -8 -20 40 -39 66
-25 10 5 26 7 34 4 9 -3 27 1 41 10 30 20 36 20 61 0 18 -15 17 -15 -18 -10
-21 2 -38 1 -38 -3 0 -21 173 -30 186 -10 9 16 -17 30 -42 24 -14 -3 -24 1
-28 11 -3 8 -10 12 -16 9 -5 -3 -10 1 -10 9 0 21 38 30 66 15 13 -7 24 -16 24
-21 0 -4 5 -8 12 -8 6 0 19 -6 27 -14 12 -9 25 -11 49 -4 43 11 40 23 -9 49
-37 18 -41 19 -35 4 5 -14 2 -16 -16 -11 -13 3 -29 6 -36 6 -7 0 -12 8 -11 18
1 9 -3 28 -9 42 -10 23 -11 24 -17 5z m-130 -55 c-12 -13 -22 -17 -28 -11 -13
13 1 31 25 31 21 0 21 -1 3 -20z m85 5 c-14 -17 -40 -20 -40 -6 0 8 18 16 44
20 5 0 3 -6 -4 -14z"/>
<path d="M2098 5203 c-10 -3 -18 -10 -18 -16 0 -7 36 -116 80 -244 l79 -231
-97 67 c-408 285 -424 293 -454 263 -6 -6 22 -99 76 -256 47 -136 86 -254 86
-262 0 -15 28 -19 46 -6 7 4 -16 82 -67 227 -43 121 -78 226 -78 232 -1 7 41
-16 92 -50 424 -289 406 -278 430 -266 12 6 23 13 25 14 4 3 -170 519 -177
526 -3 3 -14 4 -23 2z"/>
<path d="M3600 4986 c-41 -99 -88 -214 -107 -255 -18 -40 -33 -77 -33 -81 0
-12 280 -112 296 -106 38 14 8 35 -106 76 -74 26 -120 47 -120 56 0 7 43 115
95 240 52 125 92 230 90 234 -3 4 -13 10 -24 13 -16 4 -29 -20 -91 -177z"/>
<path d="M4040 4883 c-163 -211 -180 -235 -190 -274 -16 -58 2 -112 57 -170
60 -64 131 -99 200 -99 91 0 104 12 277 233 89 113 106 140 96 152 -16 19 -36
19 -43 1 -3 -7 -59 -80 -125 -163 -131 -164 -165 -190 -230 -178 -82 15 -174
93 -186 158 -10 54 8 87 143 256 114 142 121 154 104 167 -10 7 -20 13 -23 14
-3 0 -39 -44 -80 -97z"/>
<path d="M1476 4915 c-18 -14 -15 -20 59 -142 43 -70 108 -179 144 -240 36
-62 69 -113 72 -113 3 0 13 6 23 13 18 13 12 26 -91 193 -60 98 -126 207 -147
242 -21 34 -38 62 -39 62 -1 0 -11 -7 -21 -15z"/>
<path d="M1232 4798 c-7 -7 -12 -17 -12 -24 0 -6 42 -85 93 -175 52 -90 112
-198 134 -240 l41 -77 -111 34 c-62 19 -129 39 -150 46 -41 13 -73 50 -121
146 -28 55 -36 61 -56 38 -9 -12 -3 -29 34 -86 51 -79 54 -77 -49 -39 -62 23
-62 23 -75 -1 -9 -18 -3 -22 90 -51 l100 -32 79 -149 c76 -143 78 -149 53
-143 -15 3 -128 39 -252 79 l-225 74 -18 -20 c-10 -12 -16 -22 -15 -23 2 -2
129 -42 282 -90 272 -84 280 -86 298 -68 18 19 17 23 -57 165 -41 80 -75 148
-75 151 0 3 66 -17 148 -44 l147 -48 17 22 c12 15 14 26 7 40 -55 102 -273
494 -283 508 -10 14 -15 16 -24 7z"/>
<path d="M4445 4353 c-132 -73 -241 -138 -243 -143 -5 -15 106 -187 143 -218
101 -90 257 -17 246 115 -2 21 0 21 26 8 78 -41 186 12 200 98 6 41 -17 97
-89 208 l-43 66 -240 -134z m280 -10 c25 -43 45 -89 45 -104 0 -38 -35 -77
-75 -85 -47 -8 -77 0 -109 32 -26 27 -91 132 -85 138 10 9 165 95 171 95 4 1
28 -34 53 -76z m-221 -121 c55 -93 59 -135 20 -181 -33 -39 -83 -50 -130 -27
-41 19 -140 164 -124 180 7 7 179 105 187 106 0 0 22 -35 47 -78z"/>
<path d="M805 1690 c-88 -10 -166 -19 -172 -19 -7 -1 -13 -8 -13 -16 0 -19 18
-19 203 1 82 9 151 14 154 11 2 -3 7 -33 10 -66 7 -73 -4 -91 -56 -91 -49 0
-79 31 -87 93 -8 55 -34 67 -34 15 1 -50 34 -114 69 -133 17 -8 31 -17 31 -19
0 -3 -51 -21 -112 -42 -62 -20 -115 -38 -117 -40 -2 -2 -1 -10 2 -18 5 -13 19
-10 87 15 96 35 152 37 180 9 11 -11 20 -27 20 -35 0 -8 7 -15 15 -15 24 0 17
36 -14 69 -16 17 -24 31 -19 31 6 0 8 7 5 15 -4 9 5 21 24 32 38 23 44 48 33
142 -8 66 -12 76 -29 77 -11 1 -92 -7 -180 -16z"/>
<path d="M4737 1656 c-4 -11 27 -40 105 -98 128 -96 131 -90 -58 -103 -102 -7
-106 -8 -115 -33 -6 -15 -8 -37 -6 -50 3 -16 0 -22 -8 -18 -8 3 -16 -1 -19 -9
-5 -15 23 -33 162 -105 67 -35 86 -40 92 -29 7 10 -11 24 -73 56 -94 49 -130
83 -125 122 3 25 5 26 118 38 173 17 174 17 216 -19 34 -30 36 -35 30 -75 -6
-45 6 -57 24 -24 15 29 12 73 -8 97 -9 12 -82 72 -162 134 -80 62 -150 117
-156 122 -8 5 -14 3 -17 -6z"/>
<path d="M921 1310 c-75 -18 -136 -91 -128 -154 7 -47 57 -120 86 -124 24 -4
29 16 6 24 -20 8 -65 85 -65 112 0 23 55 92 74 92 6 0 35 -38 64 -85 30 -47
57 -85 61 -85 17 0 49 32 61 60 10 24 10 40 1 70 -11 38 -61 90 -86 90 -7 0
-19 2 -27 4 -7 2 -28 0 -47 -4z m119 -67 c25 -33 26 -75 1 -97 -19 -18 -21
-16 -65 53 -25 39 -46 73 -46 75 0 3 8 6 18 8 28 7 70 -12 92 -39z"/>
<path d="M4593 1261 c-73 -46 -83 -143 -22 -208 67 -70 137 -81 194 -31 37 32
79 101 68 112 -12 11 -22 6 -28 -14 -10 -31 -55 -81 -83 -91 -28 -11 -83 3
-102 27 -13 15 -7 26 76 136 l35 47 -23 15 c-41 27 -80 29 -115 7z m80 -23
c14 -12 11 -20 -35 -81 -57 -76 -78 -77 -78 -5 0 67 68 119 113 86z"/>
<path d="M1017 1046 c-110 -118 -115 -156 -8 -52 74 71 108 90 147 80 31 -8
65 -50 57 -72 -3 -9 -40 -52 -82 -94 -59 -61 -73 -80 -63 -90 10 -10 26 2 80
54 37 37 80 72 96 78 51 19 106 -16 106 -67 0 -10 -36 -54 -81 -99 -63 -64
-77 -83 -67 -92 21 -17 178 156 178 196 0 53 -59 99 -121 94 -12 -1 -15 5 -12
22 6 30 -47 92 -86 101 -18 4 -28 12 -27 22 3 37 -26 17 -117 -81z"/>
<path d="M4484 1117 c-3 -9 -3 -25 1 -34 4 -10 24 -67 46 -126 l39 -108 -88
47 c-48 26 -101 55 -118 66 -27 15 -33 16 -43 4 -10 -12 10 -26 116 -80 131
-68 147 -74 158 -55 7 10 -81 275 -96 293 -5 5 -11 2 -15 -7z"/>
<path d="M4223 1014 c-9 -23 11 -38 26 -20 13 16 7 36 -10 36 -5 0 -12 -7 -16
-16z"/>
<path d="M4153 972 c-8 -5 19 -58 85 -169 89 -148 112 -177 126 -155 4 6 -172
304 -191 323 -5 5 -13 5 -20 1z"/>
<path d="M1495 939 c-8 -12 14 -31 30 -26 6 2 10 10 10 18 0 17 -31 24 -40 8z"/>
<path d="M4276 942 c-3 -5 31 -61 75 -125 55 -81 84 -114 94 -111 17 7 21 0
-73 137 -70 102 -85 117 -96 99z"/>
<path d="M1372 755 c-63 -90 -78 -117 -66 -122 8 -3 16 -4 18 -2 1 2 37 53 80
112 68 96 82 127 57 127 -4 0 -44 -52 -89 -115z"/>
<path d="M1469 737 c-57 -101 -65 -142 -33 -178 27 -30 101 -62 129 -55 17 4
22 2 21 -12 -3 -44 30 -7 93 103 58 102 66 121 53 129 -10 6 -17 6 -19 0 -2
-5 -22 -43 -46 -84 -28 -49 -54 -81 -76 -94 -31 -18 -37 -18 -74 -5 -22 8 -49
26 -61 42 l-20 27 22 43 c12 23 37 70 57 103 28 49 33 63 21 67 -10 4 -30 -22
-67 -86z"/>
<path d="M4095 822 c-55 -13 -105 -75 -105 -129 1 -42 33 -105 69 -136 45 -38
102 -37 164 3 26 16 47 36 47 45 0 21 -4 19 -52 -15 -57 -42 -105 -41 -147 2
-17 17 -31 37 -31 43 0 6 41 33 90 59 50 26 90 51 90 57 0 5 -12 22 -27 38
-29 30 -63 42 -98 33z m63 -38 c12 -8 22 -19 22 -24 0 -6 -36 -28 -80 -50
l-80 -40 0 29 c0 47 51 98 100 100 9 1 26 -6 38 -15z"/>
<path d="M3705 750 c-49 -16 -95 -34 -102 -38 -9 -6 2 -53 44 -187 30 -99 56
-181 57 -182 5 -7 164 60 196 82 85 59 101 181 38 275 -56 82 -106 92 -233 50z
m173 -26 c33 -22 62 -90 62 -150 0 -72 -28 -111 -110 -151 -105 -52 -95 -59
-150 112 -26 83 -44 154 -40 158 4 5 41 19 81 33 78 25 116 25 157 -2z"/>
<path d="M1776 692 c-15 -25 -95 -256 -90 -263 12 -20 23 -5 54 78 18 48 43
97 56 110 30 30 86 31 114 3 24 -24 22 -36 -27 -160 -18 -47 -33 -86 -33 -87
0 -2 8 -3 18 -3 13 0 25 21 47 83 37 104 71 142 121 134 44 -7 64 -23 64 -51
0 -11 -18 -65 -39 -119 -32 -80 -37 -99 -25 -104 19 -7 15 -14 57 97 45 116
47 151 11 179 -33 26 -86 36 -112 22 -17 -9 -26 -5 -56 25 -33 33 -40 36 -86
32 -35 -2 -49 0 -46 9 5 12 -21 27 -28 15z"/>
<path d="M2846 433 c-11 -130 -8 -213 8 -213 9 0 15 23 19 83 11 137 9 207 -7
207 -9 0 -15 -22 -20 -77z"/>
<path d="M8 4383 c7 -3 16 -2 19 1 4 3 -2 6 -13 5 -11 0 -14 -3 -6 -6z"/>
</g>
</svg>
